<?xml version="1.0" encoding="UTF-8"?>
<svg id="Layer_1" data-name="Layer 1" xmlns="http://www.w3.org/2000/svg" viewBox="0 0 1459.32 236.74">
  <defs>
    <style>
      .cls-1 {
        fill: #eeb020;
      }
    </style>
  </defs>
  <path class="cls-1" d="M157.28,228.61V10.99h53.97v84.63h77.76V10.99h53.97v217.62h-53.97v-92.23h-77.76v92.23h-53.97Z"/>
  <path class="cls-1" d="M625.8,8.79h90.07c12.97,0,24.44,1.81,34.41,5.43,9.96,3.63,18.25,8.59,24.86,14.9,6.6,6.31,11.58,13.67,14.95,22.08,3.36,8.41,5.04,17.41,5.04,26.99s-1.38,17.12-4.14,24.01c-2.76,6.9-6.3,12.92-10.63,18.05-4.32,5.15-9.01,9.35-14.05,12.62-5.05,3.27-9.73,5.84-14.05,7.71l54.4,89.03h-63.05l-40.35-79.57h-22.7v79.57h-54.76V8.79ZM680.56,109.74h16.57c12.48,0,22.57-2.45,30.26-7.36,7.68-4.91,11.53-12.85,11.53-23.83,0-9.11-3.12-16.35-9.36-21.73-6.25-5.37-15.26-8.06-27.02-8.06h-21.98v60.99Z"/>
  <path class="cls-1" d="M907.66,8.79c18.02,0,34.35,2.22,49,6.66,14.65,4.44,27.2,11.1,37.65,19.98,10.45,8.89,18.49,19.93,24.14,33.13,5.64,13.2,8.47,28.56,8.47,46.09,0,19.63-3.36,36.63-10.09,51-6.73,14.37-15.92,26.29-27.56,35.75-11.65,9.46-25.28,16.53-40.89,21.2-15.62,4.68-32.19,7.01-49.72,7.01h-72.06V8.79h81.06ZM881.36,188.95h14.05c9.6,0,18.91-1.17,27.92-3.51,9.01-2.33,16.87-6.37,23.6-12.09,6.72-5.72,12.13-13.37,16.21-22.96,4.08-9.58,6.12-21.5,6.12-35.75,0-21.26-6.12-37.44-18.37-48.54-12.25-11.1-28.82-16.65-49.72-16.65h-19.82v139.5Z"/>
  <path class="cls-1" d="M1101.94,10.99h57.52l80.6,217.62h-57.16l-15.27-46.63h-75.27l-15.27,46.63h-56.46l81.31-217.62ZM1104.07,143.98h51.13l-8.52-26.25c-2.84-8.52-5.74-17.62-8.7-27.29-2.96-9.67-5.5-18.54-7.64-26.6h-.71c-2.37,8.06-5.09,16.81-8.17,26.25-3.08,9.45-6.04,18.65-8.88,27.63l-8.52,26.25Z"/>
  <path class="cls-1" d="M1260.02,10.99h51.92l91.34,145.78c-1.19-13.82-1.36-23.21-1.59-37.15-.24-13.93-.35-27.8-.35-41.62V10.99h49.71v217.62h-51.81s-85.67-131.39-90.65-145.44c0,0,.55,22.24.78,35.6.24,13.36.36,26.94.36,40.76v69.08h-49.71V10.99Z"/>
  <path class="cls-1" d="M116.08,8.75v154.36c0,21.4-6.19,38.07-18.56,49.9-12.41,11.87-29.01,17.83-49.79,17.83H7.01v-45.75h33.01c7.95,0,14.06-2.54,18.25-7.57,4.19-5.03,6.3-13.12,6.3-21.92V8.75h51.51Z"/>
  <g>
    <path class="cls-1" d="M487.16,3.87c16.09,0,31.01,2.66,44.74,7.99,13.73,5.32,25.56,12.96,35.5,22.9,9.94,9.94,17.69,22.14,23.26,36.57,5.56,14.44,8.34,30.77,8.34,49s-2.9,33.73-8.7,47.93c-5.8,14.21-13.73,26.34-23.79,36.4-10.07,10.06-22.01,17.75-35.86,23.08-13.85,5.33-28.82,7.99-44.92,7.99s-31.01-2.61-44.74-7.81c-13.73-5.2-25.56-12.72-35.5-22.55-9.94-9.82-17.7-21.89-23.26-36.22-5.57-14.32-8.34-30.59-8.34-48.82s2.84-33.79,8.52-48.11c5.68-14.32,13.61-26.57,23.79-36.75,10.17-10.18,22.19-17.99,36.04-23.43,13.85-5.44,28.82-8.17,44.91-8.17ZM430.71,120.33c0,12.55,1.48,23.56,4.44,33.02,2.96,9.47,7.04,17.28,12.25,23.43,5.2,6.16,11.18,10.77,17.93,13.85,6.75,3.08,14.02,4.61,21.83,4.61s14.74-1.54,21.48-4.61c6.75-3.08,12.6-7.69,17.58-13.85,4.97-6.15,8.88-13.97,11.72-23.43,2.84-9.47,4.26-20.47,4.26-33.02s-1.48-24.32-4.44-33.91c-2.96-9.58-7.05-17.45-12.25-23.61-5.21-6.15-11.18-10.77-17.93-13.85-6.75-3.07-14.02-4.61-21.84-4.61s-14.73,1.6-21.48,4.8c-6.75,3.19-12.6,7.99-17.58,14.38-4.97,6.39-8.88,14.32-11.72,23.79-2.84,9.47-4.26,20.48-4.26,33.02Z"/>
    <rect class="cls-1" x="470.72" y="-19.59" width="31.46" height="278.77" transform="translate(195.28 -287.89) rotate(40.63)"/>
  </g>
</svg>